<?xml version="1.0" standalone="no"?>
<!DOCTYPE svg PUBLIC "-//W3C//DTD SVG 1.1//EN" "http://www.w3.org/Graphics/SVG/1.1/DTD/svg11.dtd" >
<svg xmlns="http://www.w3.org/2000/svg">
<metadata></metadata>
<defs>
<font id="webfontregular" horiz-adv-x="1132" >
<font-face units-per-em="2048" ascent="1638" descent="-410" />
<missing-glyph horiz-adv-x="512" />
<glyph horiz-adv-x="0" />
<glyph horiz-adv-x="682" />
<glyph unicode=" "  horiz-adv-x="512" />
<glyph unicode="&#x09;" horiz-adv-x="512" />
<glyph unicode="&#xa0;" horiz-adv-x="512" />
<glyph unicode="!" horiz-adv-x="571" d="M184 82q0 40 30.5 70t70.5 30q41 0 71.5 -30t30.5 -70q0 -41 -30.5 -71.5t-71.5 -30.5t-71 30t-30 72zM211 276v1090h149v-1090h-149z" />
<glyph unicode="&#x22;" horiz-adv-x="624" d="M84 1366h166l-29 -549h-110zM377 1366h164l-27 -549h-111z" />
<glyph unicode="#" horiz-adv-x="1179" d="M76 434v123h233l35 285h-217v123h233l50 411l129 -16l-50 -395h289l51 411l127 -16l-49 -395h213v-123h-225l-37 -285h211v-123h-225l-56 -440l-126 18l51 422h-289l-55 -440l-127 18l51 422h-217zM440 557h287l35 285h-287z" />
<glyph unicode="$" d="M143 332l148 41q17 -106 83 -172.5t161 -73.5v551q-174 72 -248 153t-74 201q0 135 87 229t235 117v185h120v-187q89 -10 166 -66t121 -141l-119 -77q-38 64 -76.5 96.5t-91.5 44.5v-449q122 -54 183 -96q153 -101 153 -289q0 -152 -91 -262t-245 -145v-199h-120v191 q-145 5 -254.5 102t-137.5 246zM367 1030q0 -60 40 -106t128 -86v397q-78 -20 -123 -75t-45 -130zM655 137q88 34 135.5 99.5t47.5 154.5q0 77 -42.5 131t-140.5 101v-486z" />
<glyph unicode="%" horiz-adv-x="1443" d="M57 1087q0 119 90.5 206t214.5 87q126 0 215 -87.5t89 -211.5t-89.5 -210.5t-218.5 -86.5q-126 0 -213.5 88t-87.5 215zM178 1085q0 -78 53 -132t131 -54q75 0 129 54t54 130q0 75 -55 130t-130 55q-73 0 -127.5 -54.5t-54.5 -128.5zM285 20l794 1373l78 -45l-795 -1375z M778 289q0 120 89.5 206.5t213.5 86.5q126 0 215.5 -87t89.5 -210q0 -124 -89.5 -211.5t-217.5 -87.5q-125 0 -213 88.5t-88 214.5zM899 287q0 -78 53.5 -132.5t130.5 -54.5q75 0 129 55t54 130t-54.5 129.5t-130.5 54.5q-75 0 -128.5 -53.5t-53.5 -128.5z" />
<glyph unicode="&#x26;" horiz-adv-x="1253" d="M84 354q0 192 190 342q59 46 162 111q-78 104 -107.5 167t-29.5 126q0 125 85 207t214 82q124 0 207.5 -79t83.5 -196q0 -121 -109 -227q-40 -40 -133 -109l287 -366q66 66 156 180l108 -92q-71 -100 -174 -203l233 -297h-190l-149 190q-125 -115 -229.5 -166t-209.5 -51 q-164 0 -279.5 111.5t-115.5 269.5zM233 362q0 -101 73 -175t171 -74q143 0 350 190l-303 393q-149 -104 -164 -116q-67 -55 -97 -106.5t-30 -111.5zM444 1108q0 -43 16.5 -74.5t88.5 -130.5q3 0 10 -14q122 91 153 129t31 98q0 62 -41.5 101.5t-107.5 39.5 q-63 0 -106.5 -43t-43.5 -106z" />
<glyph unicode="'" horiz-adv-x="333" d="M84 1366h166l-29 -549h-110z" />
<glyph unicode="(" horiz-adv-x="602" d="M170 567q0 262 46 513.5t124 420.5l131 -59q-154 -394 -154 -875q0 -479 154 -876l-131 -60q-78 169 -124 421t-46 515z" />
<glyph unicode=")" horiz-adv-x="602" d="M129 -309q154 394 154 876q0 481 -154 875l129 59q79 -167 125.5 -419t46.5 -515q0 -264 -46 -515.5t-126 -420.5z" />
<glyph unicode="*" horiz-adv-x="1112" d="M217 1198l43 129l238 -88l-11 254h138l-11 -254l238 88l43 -129l-246 -70l158 -198l-111 -82l-141 213l-139 -213l-111 82l158 198z" />
<glyph unicode="+" horiz-adv-x="1138" d="M88 635v125h420v411h125v-411h420v-125h-420v-414h-125v414h-420z" />
<glyph unicode="," horiz-adv-x="464" d="M49 -272l170 473l133 -49l-205 -463z" />
<glyph unicode="-" horiz-adv-x="370" d="M0 371v131h371v-131h-371z" />
<glyph unicode="." horiz-adv-x="464" d="M131 82q0 40 30 70t70 30q41 0 72 -30t31 -70q0 -41 -30.5 -71.5t-70.5 -30.5q-43 0 -72.5 29.5t-29.5 72.5z" />
<glyph unicode="/" horiz-adv-x="993" d="M-29 -313l893 1814l119 -53l-893 -1817z" />
<glyph unicode="0" d="M78 690q0 143 38 272t103.5 222t156 147.5t191.5 54.5q136 0 248 -91.5t176 -252t64 -356.5q0 -293 -135 -500q-65 -94 -161.5 -151.5t-191.5 -57.5q-101 0 -197.5 59t-162.5 161q-129 197 -129 493zM227 686q0 -247 96 -407t244 -160q92 0 169.5 75.5t123 205 t45.5 282.5q0 156 -45 286t-123 204.5t-172 74.5t-171.5 -73.5t-122 -202.5t-44.5 -285z" />
<glyph unicode="1" d="M303 1225l80 141h299v-1366h-154v1225h-225z" />
<glyph unicode="2" d="M90 0l496 575q132 152 184.5 243t52.5 165q0 110 -80 187t-194 77q-69 0 -131 -32.5t-96 -86.5q-21 -32 -31.5 -66.5t-14.5 -94.5h-153q9 91 24.5 142.5t49.5 100.5q59 83 151 129.5t199 46.5q180 0 303 -117.5t123 -287.5q0 -110 -58.5 -213t-236.5 -307l-279 -320h572 v-141h-881z" />
<glyph unicode="3" d="M119 354h147q8 -52 17.5 -79.5t29.5 -53.5q34 -46 93.5 -74t121.5 -28q114 0 191.5 79t77.5 195q0 77 -36 138.5t-99 89.5q-32 15 -64.5 20.5t-91.5 7.5v133q61 1 95.5 8.5t66.5 26.5q51 28 79.5 81t28.5 118q0 101 -66 166t-167 65q-60 0 -110.5 -23.5t-78.5 -64.5 q-29 -44 -43 -131h-149q11 75 24 117.5t39 83.5q46 75 129 116t189 41q167 0 275 -103t108 -263q0 -208 -174 -303q94 -44 144 -130t50 -200q0 -177 -119.5 -293.5t-302.5 -116.5q-116 0 -213 54t-147 145q-37 65 -45 178z" />
<glyph unicode="4" d="M27 223l852 1217v-1080h168v-137h-168v-223h-152v223h-700zM295 360h432v617z" />
<glyph unicode="5" d="M55 221l121 86q62 -97 136 -142.5t171 -45.5q143 0 242.5 100.5t99.5 245.5q0 143 -98 241.5t-240 98.5q-66 0 -123.5 -20t-140.5 -72l199 653h543v-141h-437l-90 -293q39 8 97 8q184 0 312 -138t128 -335q0 -209 -143.5 -349.5t-358.5 -140.5q-270 0 -418 244z" />
<glyph unicode="6" d="M96 440q0 161 113 314l465 647l114 -86l-315 -438q69 20 127 20q181 0 308.5 -132.5t127.5 -318.5q0 -193 -137.5 -331t-329.5 -138q-128 0 -237 62.5t-172.5 169t-63.5 231.5zM246 440q0 -132 94.5 -226.5t226.5 -94.5q130 0 225 94t95 223q0 135 -94 230.5t-226 95.5 t-226.5 -95t-94.5 -227z" />
<glyph unicode="7" d="M109 47l774 1178h-746v141h1006l-916 -1399z" />
<glyph unicode="8" d="M162 377q0 229 203 334q-80 47 -124 126.5t-44 174.5q0 158 110 266t273 108t273 -107t110 -267q0 -91 -47 -174t-125 -127q93 -44 145.5 -131.5t52.5 -198.5q0 -173 -117 -288.5t-292 -115.5q-178 0 -298 115t-120 285zM311 383q0 -109 77.5 -186.5t186.5 -77.5 t187 77.5t78 184.5t-78.5 184.5t-186.5 77.5q-106 0 -185 -78t-79 -182zM342 1012q0 -100 69 -170t169 -70q97 0 167 70.5t70 167.5t-70.5 167t-168.5 70q-96 0 -166 -69.5t-70 -165.5z" />
<glyph unicode="9" d="M96 922q0 126 63 233t171 169t235 62q128 0 237 -61.5t172.5 -167t63.5 -229.5q0 -159 -112 -316l-467 -645l-113 84l313 438q-68 -18 -124 -18q-183 0 -311 131.5t-128 319.5zM246 930q0 -134 94 -229t227 -95q132 0 227 95t95 227t-95 225.5t-227 93.5q-131 0 -226 -94 t-95 -223z" />
<glyph unicode=":" horiz-adv-x="464" d="M131 82q0 40 30 70t70 30q41 0 72 -30t31 -70q0 -41 -30.5 -71.5t-70.5 -30.5q-43 0 -72.5 29.5t-29.5 72.5zM131 770q0 41 29.5 69.5t70.5 28.5q44 0 72.5 -27.5t28.5 -70.5t-29 -72.5t-70 -29.5q-42 0 -72 30t-30 72z" />
<glyph unicode=";" horiz-adv-x="464" d="M49 -272l170 473l133 -49l-205 -463zM164 770q0 40 30.5 69t71.5 29q43 0 71 -27.5t28 -70.5q0 -44 -28.5 -73t-70.5 -29q-41 0 -71.5 30.5t-30.5 71.5z" />
<glyph unicode="&#x3c;" horiz-adv-x="1024" d="M68 623v133l886 418v-154l-723 -330l723 -332v-151z" />
<glyph unicode="=" horiz-adv-x="1138" d="M88 510v119h965v-119h-965zM88 764v119h965v-119h-965z" />
<glyph unicode="&#x3e;" horiz-adv-x="1024" d="M70 207v151l723 332l-723 330v154l886 -418v-133z" />
<glyph unicode="?" horiz-adv-x="892" d="M117 1071q0 132 94 221.5t235 89.5q142 0 237 -93t95 -234q0 -80 -35.5 -152t-93.5 -112q-34 -24 -72 -38.5t-141 -43.5q-72 -22 -104.5 -58t-32.5 -94q0 -61 42.5 -104t102.5 -43q40 0 75 21t52 56q19 39 21 99h147q-1 -59 -10 -96t-29 -74q-38 -66 -107.5 -105 t-150.5 -39q-123 0 -206.5 84.5t-83.5 210.5q0 104 58.5 170t188.5 109q96 29 120 39t50 30q60 47 60 140q0 82 -52.5 134t-134.5 52q-78 0 -129 -50.5t-51 -127.5q0 -32 12 -86h-149q-8 63 -8 94zM346 82q0 40 30 70t70 30q41 0 72 -30t31 -70q0 -41 -31 -71.5t-72 -30.5 t-70.5 29.5t-29.5 72.5z" />
<glyph unicode="@" horiz-adv-x="1429" d="M31 684q0 146 55.5 277.5t150 225.5t226.5 149t280 55q136 0 257 -47t207 -128.5t136 -195.5t50 -242q0 -130 -45 -243t-121.5 -179.5t-163.5 -66.5q-108 0 -148 119q-65 -69 -119 -96t-130 -27q-149 0 -248 105t-99 265q0 172 110 287t273 115q80 0 136.5 -27t105.5 -88 l10 98h136l-56 -465q-6 -46 -6 -92q0 -35 12.5 -50t40.5 -15q48 0 92 49t70.5 130.5t26.5 170.5q0 218 -148.5 359t-380.5 141q-120 0 -227 -45.5t-183.5 -123t-121.5 -186t-45 -229.5q0 -160 75 -295.5t207 -210.5q135 -78 324 -78q124 0 217.5 23.5t231.5 89.5l43 -119 q-128 -64 -242 -91.5t-248 -27.5q-228 0 -399 97q-158 92 -250 256t-92 356zM475 651q0 -103 55.5 -168t141.5 -65q98 0 170.5 87t72.5 204q0 95 -55.5 155t-144.5 60q-103 0 -171.5 -78t-68.5 -195z" />
<glyph unicode="A" horiz-adv-x="1243" d="M0 0l629 1432l614 -1432h-168l-162 387h-583l-164 -387h-166zM393 528h461l-227 547z" />
<glyph unicode="B" horiz-adv-x="1056" d="M164 0v1366h248q109 0 181 -19.5t128 -64.5q60 -49 93.5 -124.5t33.5 -160.5q0 -89 -30 -148.5t-105 -117.5q88 -27 141 -74q54 -47 85.5 -121.5t31.5 -152.5q0 -177 -140 -289q-63 -52 -136 -73t-189 -21h-342zM317 141h175q91 0 142 13.5t95 48.5q88 66 88 184 q0 66 -30 121t-82 84q-42 24 -93.5 33.5t-140.5 9.5h-154v-494zM317 764h115q77 0 118.5 11t76.5 42q71 65 71 176q0 119 -71 181q-59 51 -191 51h-119v-461z" />
<glyph unicode="C" horiz-adv-x="1292" d="M86 678q0 144 57 275.5t153 227t228 152t277 56.5q115 0 206.5 -31t196.5 -105v-188q-99 95 -197.5 137.5t-215.5 42.5q-111 0 -213 -45.5t-176 -122t-118 -181t-44 -218.5q0 -150 75 -279t202.5 -204.5t275.5 -75.5q114 0 213.5 43t197.5 135v-188q-194 -134 -411 -134 q-142 0 -273 56t-226 150.5t-151.5 224.5t-56.5 272z" />
<glyph unicode="D" horiz-adv-x="1267" d="M164 0v1366h280q166 0 285 -37.5t217 -120.5q115 -95 175.5 -229.5t60.5 -294.5q0 -330 -240 -526q-101 -85 -217.5 -121.5t-282.5 -36.5h-278zM317 141h134q243 0 391 125q89 75 137.5 184t48.5 232q0 125 -48.5 235t-137.5 183q-145 125 -391 125h-134v-1084z" />
<glyph unicode="E" horiz-adv-x="960" d="M164 0v1366h706v-141h-553v-408h539v-141h-539v-535h553v-141h-706z" />
<glyph unicode="F" horiz-adv-x="860" d="M164 0v1366h620v-141h-467v-408h453v-141h-453v-676h-153z" />
<glyph unicode="G" horiz-adv-x="1519" d="M86 680q0 145 56.5 276t151.5 226t227 151t278 56q236 0 418 -140q70 -51 157 -157l-112 -103q-101 135 -210.5 195.5t-250.5 60.5q-153 0 -282 -75.5t-204 -206t-75 -285.5q0 -149 74.5 -278t201 -205t272.5 -76q128 0 245.5 64.5t180.5 168.5q48 75 56 193h-406v141 h570v-35q0 -220 -80 -360q-85 -145 -239 -230.5t-329 -85.5q-189 0 -350.5 95t-255.5 257.5t-94 352.5z" />
<glyph unicode="H" horiz-adv-x="1331" d="M164 0v1366h153v-557h697v557h153v-1366h-153v668h-697v-668h-153z" />
<glyph unicode="I" horiz-adv-x="481" d="M164 0v1366h153v-1366h-153z" />
<glyph unicode="J" horiz-adv-x="602" d="M-109 -41l84 119q52 -45 84 -60.5t74 -15.5q80 0 116 62t36 198v1104h153v-1104q0 -129 -22.5 -202.5t-79.5 -125.5q-81 -75 -199 -75q-126 0 -246 100z" />
<glyph unicode="K" horiz-adv-x="1136" d="M164 0v1366h153v-586l582 586h205l-641 -637l661 -729h-209l-559 627l-39 -39v-588h-153z" />
<glyph unicode="L" horiz-adv-x="706" d="M164 0v1366h153v-1225h375v-141h-528z" />
<glyph unicode="M" horiz-adv-x="1738" d="M117 0l225 1442l524 -1153l537 1155l211 -1444h-156l-127 950l-465 -1007l-458 1007l-136 -950h-155z" />
<glyph unicode="N" horiz-adv-x="1544" d="M164 0v1423l1063 -1116v1059h153v-1427l-1063 1114v-1053h-153z" />
<glyph unicode="O" horiz-adv-x="1593" d="M86 690q0 186 97 347.5t261.5 256.5t354.5 95q143 0 274 -56.5t226 -151.5t151.5 -225.5t56.5 -273.5q0 -192 -96 -355t-261 -257.5t-359 -94.5q-153 0 -299 69t-246 189q-160 195 -160 457zM240 690q0 -155 74 -286.5t201.5 -208t277.5 -76.5q152 0 281 75.5t204.5 205 t75.5 282.5t-74 282.5t-202.5 205t-280.5 75.5q-150 0 -278.5 -75t-203.5 -203t-75 -277z" />
<glyph unicode="P" horiz-adv-x="909" d="M164 0v1366h248q127 0 205.5 -22t138.5 -74q60 -51 93.5 -126.5t33.5 -160.5q0 -180 -115.5 -282.5t-316.5 -102.5h-134v-598h-153zM317 737h123q139 0 216 64.5t77 181.5q0 114 -76 180q-74 62 -227 62h-113v-488z" />
<glyph unicode="Q" horiz-adv-x="1595" d="M86 678q0 145 56.5 276.5t151.5 226.5t226.5 151.5t276.5 56.5t276.5 -56.5t226.5 -152.5t151 -228t56 -278q0 -139 -45.5 -250t-150.5 -229l205 -209h-195l-115 123q-187 -134 -413 -134q-191 0 -354 94.5t-258 256.5t-95 352zM240 678q0 -114 44 -217.5t117.5 -178.5 t175.5 -119t214 -44q172 0 309 98l-330 332h199l235 -246q80 89 115 177t35 198q0 156 -74 286.5t-202 205.5t-281 75q-154 0 -282 -75t-201.5 -205.5t-73.5 -286.5z" />
<glyph unicode="R" horiz-adv-x="1001" d="M164 0v1366h221q117 0 193.5 -17t134.5 -57q70 -47 110.5 -129.5t40.5 -179.5q0 -155 -94.5 -257t-249.5 -116l434 -610h-186l-412 598h-39v-598h-153zM317 733h97q138 0 211 55q41 32 65.5 85t24.5 110q0 61 -27.5 114.5t-73.5 82.5q-71 45 -206 45h-91v-492z" />
<glyph unicode="S" horiz-adv-x="1032" d="M88 328l148 41q12 -54 23.5 -83.5t31.5 -56.5q36 -52 95.5 -81t127.5 -29q115 0 194.5 77.5t79.5 190.5q0 126 -112 195q-9 6 -14.5 9.5t-11.5 7t-13.5 7.5t-13 7t-17 8.5t-19.5 9.5t-27 12.5t-32.5 14.5t-42.5 19t-51 23q-147 66 -211.5 144.5t-64.5 191.5 q0 152 109.5 252.5t273.5 100.5q230 0 352 -213l-121 -78q-52 83 -103.5 115t-129.5 32q-97 0 -162.5 -60.5t-65.5 -150.5q0 -89 86 -145q36 -26 65.5 -40t172.5 -77q164 -72 235.5 -160t71.5 -217q0 -179 -125 -299.5t-309 -120.5q-161 0 -271.5 93t-148.5 260z" />
<glyph unicode="T" horiz-adv-x="841" d="M14 1225v141h815v-141h-331v-1225h-154v1225h-330z" />
<glyph unicode="U" horiz-adv-x="1300" d="M164 487v879h153v-838q0 -107 9.5 -162.5t35.5 -99.5q40 -65 120.5 -106t168.5 -41q86 0 166.5 41t120.5 106q26 44 35.5 99.5t9.5 162.5v838h154v-879q0 -111 -20.5 -186t-69.5 -137q-68 -88 -173.5 -138.5t-222.5 -50.5q-118 0 -224.5 50.5t-172.5 138.5 q-49 63 -69.5 136.5t-20.5 186.5z" />
<glyph unicode="V" horiz-adv-x="1107" d="M0 1366h168l387 -1040l387 1040h166l-555 -1446z" />
<glyph unicode="W" horiz-adv-x="1929" d="M0 1366h166l364 -1024l428 1094l404 -1094l401 1024h166l-571 -1436l-404 1092l-430 -1092z" />
<glyph unicode="X" horiz-adv-x="1001" d="M14 0l404 707l-369 659h174l283 -514l289 514h174l-377 -659l395 -707h-170l-313 561l-318 -561h-172z" />
<glyph unicode="Y" horiz-adv-x="1052" d="M0 1366h176l348 -610l353 610h178l-455 -778v-588h-154v588z" />
<glyph unicode="Z" horiz-adv-x="1067" d="M35 0l745 1225h-649v141h901l-743 -1225h725v-141h-979z" />
<glyph unicode="[" horiz-adv-x="595" d="M164 -360v1853h344v-137h-195v-1579h195v-137h-344z" />
<glyph unicode="\" horiz-adv-x="972" d="M0 1448l119 53l893 -1814l-119 -56z" />
<glyph unicode="]" horiz-adv-x="595" d="M88 -223h195v1579h-195v137h344v-1853h-344v137z" />
<glyph unicode="^" horiz-adv-x="1024" d="M49 745l361 625h202l361 -625h-166l-297 502l-295 -502h-166z" />
<glyph unicode="_" horiz-adv-x="1024" d="M0 -131h1024v-141h-1024v141z" />
<glyph unicode="`" horiz-adv-x="974" d="M209 1276l151 67l215 -294l-90 -52z" />
<glyph unicode="a" horiz-adv-x="1050" d="M74 428q0 192 114 317t291 125q92 0 163 -33.5t134 -107.5v121h146v-850h-146v119q-120 -144 -293 -144q-178 0 -293.5 128t-115.5 325zM223 430q0 -143 77.5 -232t201.5 -89q126 0 205 88.5t79 228.5q0 138 -79 224.5t-205 86.5q-120 0 -199.5 -87t-79.5 -220z" />
<glyph unicode="b" horiz-adv-x="1050" d="M131 0v1493h145v-764q63 72 134 105.5t163 33.5q177 0 291.5 -124.5t114.5 -317.5q0 -195 -115.5 -323t-292.5 -128t-295 142v-117h-145zM266 426q0 -139 79 -228t204 -89q123 0 201.5 88t78.5 223q0 140 -76.5 227.5t-199.5 87.5q-129 0 -208 -85.5t-79 -223.5z" />
<glyph unicode="c" horiz-adv-x="866" d="M72 420q0 190 130 319t322 129q76 0 136 -18.5t128 -61.5v-192q-71 78 -129 108.5t-139 30.5q-129 0 -214 -89t-85 -224t84 -224t213 -89q82 0 143 32t134 115v-193q-78 -49 -138 -68.5t-135 -19.5q-190 0 -320 128.5t-130 316.5z" />
<glyph unicode="d" horiz-adv-x="1050" d="M74 426q0 193 114 317.5t291 124.5q92 0 163 -33.5t134 -105.5v764h146v-1493h-148v117q-108 -142 -293 -142q-177 0 -292 128t-115 323zM223 430q0 -143 77.5 -232t201.5 -89q127 0 204.5 87t77.5 230q0 140 -77.5 224.5t-204.5 84.5q-121 0 -200 -86.5t-79 -218.5z" />
<glyph unicode="e" horiz-adv-x="958" d="M72 420q0 199 114 323.5t297 124.5q184 0 295 -122.5t111 -325.5v-25h-664q6 -130 80 -208t191 -78q86 0 143 39t119 139l123 -70q-70 -124 -166 -183t-226 -59q-184 0 -300.5 124t-116.5 321zM236 518h499q-20 100 -88 159.5t-162 59.5q-92 0 -162 -61.5t-87 -157.5z " />
<glyph unicode="f" horiz-adv-x="493" d="M63 715v135h80v362q0 154 54 220q68 86 200 86q43 0 107 -19v-147q-51 20 -98 20q-69 0 -93 -39t-24 -155v-328h215v-135h-215v-715h-146v715h-80z" />
<glyph unicode="g" horiz-adv-x="1052" d="M72 422q0 194 116.5 321t294.5 127t293 -141v121h146v-832q0 -126 -18 -197.5t-64 -135.5q-57 -76 -145 -117t-195 -41q-183 0 -294.5 104.5t-117.5 284.5h143q4 -53 13 -83t28 -60q32 -54 93.5 -83.5t138.5 -29.5q272 0 272 334v123q-125 -140 -299 -140 q-173 0 -289 127.5t-116 317.5zM221 424q0 -150 84 -234q84 -81 193 -81q126 0 205 87.5t79 225.5q0 169 -100 250q-83 67 -182 67q-120 0 -199.5 -89.5t-79.5 -225.5z" />
<glyph unicode="h" horiz-adv-x="944" d="M131 0v1493h145v-743q56 65 111 91.5t133 26.5q77 0 143 -30.5t101 -83.5q49 -77 49 -228v-526h-145v516q0 119 -40.5 169t-135.5 50q-116 0 -166 -72t-50 -239v-424h-145z" />
<glyph unicode="i" horiz-adv-x="409" d="M100 1171q0 42 31.5 73.5t73.5 31.5q43 0 73.5 -31t30.5 -74q0 -44 -30 -74t-74 -30t-74.5 30t-30.5 74zM131 0v850h145v-850h-145z" />
<glyph unicode="j" horiz-adv-x="409" d="M100 1171q0 42 31.5 73.5t73.5 31.5q43 0 73.5 -31t30.5 -74q0 -44 -30 -74t-74 -30t-74.5 30t-30.5 74zM131 -479v1329h145v-1329h-145z" />
<glyph unicode="k" horiz-adv-x="841" d="M131 0v1493h145v-956l308 313h194l-362 -363l432 -487h-193l-342 387l-37 -37v-350h-145z" />
<glyph unicode="l" horiz-adv-x="407" d="M131 0v1493h145v-1493h-145z" />
<glyph unicode="m" horiz-adv-x="1376" d="M131 0v850h145v-92q46 61 94 86.5t117 25.5q76 0 136.5 -35.5t97.5 -101.5q78 137 248 137q74 0 134.5 -30t94.5 -84q47 -75 47 -217v-539h-145v516q0 117 -36 169t-118 52q-92 0 -137 -65.5t-45 -200.5v-471h-146v504q0 233 -157 233q-47 0 -89.5 -25t-64.5 -65 q-31 -67 -31 -184v-463h-145z" />
<glyph unicode="n" horiz-adv-x="944" d="M131 0v850h145v-102q55 67 110.5 94.5t135.5 27.5q77 0 143 -31t101 -85q47 -75 47 -228v-526h-145v502q0 69 -6 104.5t-23 61.5q-43 71 -152 71q-61 0 -107 -26.5t-69 -75.5q-35 -71 -35 -213v-424h-145z" />
<glyph unicode="o" horiz-adv-x="1040" d="M72 430q0 182 131.5 310t318.5 128q189 0 319 -128.5t130 -317.5t-131 -318t-322 -129q-189 0 -317.5 131.5t-128.5 323.5zM221 426q0 -140 82.5 -228.5t212.5 -88.5q135 0 220 87.5t85 225.5t-84.5 225.5t-216.5 87.5q-131 0 -215 -87t-84 -222z" />
<glyph unicode="p" horiz-adv-x="1050" d="M131 -479v1329h145v-121q120 141 293 141q179 0 294.5 -127t115.5 -323q0 -194 -114.5 -319.5t-291.5 -125.5q-174 0 -297 144v-598h-145zM266 420q0 -136 80 -223.5t205 -87.5q120 0 199 87.5t79 219.5q0 143 -76.5 232t-199.5 89q-126 0 -206.5 -89t-80.5 -228z" />
<glyph unicode="q" horiz-adv-x="1050" d="M74 420q0 196 115 323t292 127q186 0 293 -141v121h148v-1329h-146v598q-123 -144 -297 -144q-177 0 -291 125.5t-114 319.5zM223 426q0 -139 77.5 -228t199.5 -89q129 0 206.5 85.5t77.5 225.5q0 141 -77.5 229t-202.5 88q-123 0 -202 -88t-79 -223z" />
<glyph unicode="r" horiz-adv-x="583" d="M131 0v850h145v-92q57 69 94 90.5t99 21.5q66 0 129 -36l-68 -132q-44 29 -86 29q-41 0 -78.5 -21t-56.5 -55q-33 -62 -33 -206v-449h-145z" />
<glyph unicode="s" horiz-adv-x="718" d="M61 193l129 53q37 -78 73.5 -107.5t96.5 -29.5q63 0 101.5 36.5t38.5 96.5q0 51 -27 78.5t-111 62.5q-148 64 -196.5 113.5t-48.5 134.5q0 101 71 169t177 68q155 0 233 -153l-121 -64q-44 84 -119 84q-43 0 -72.5 -27t-29.5 -65q0 -37 28.5 -62t108.5 -59 q114 -49 164 -84q92 -65 92 -184q0 -120 -83 -199.5t-208 -79.5q-213 0 -297 218z" />
<glyph unicode="t" horiz-adv-x="446" d="M55 715v135h88v307h146v-307h151v-135h-151v-715h-146v715h-88z" />
<glyph unicode="u" horiz-adv-x="935" d="M131 338v512h145v-496q0 -109 27 -159q22 -40 65.5 -63t100.5 -23q55 0 98.5 23t65.5 63q26 48 26 159v496h146v-512q0 -94 -17.5 -151.5t-60.5 -104.5q-93 -107 -258 -107q-167 0 -260 107q-43 47 -60.5 104.5t-17.5 151.5z" />
<glyph unicode="v" horiz-adv-x="837" d="M2 850h164l254 -571l252 571h164l-416 -907z" />
<glyph unicode="w" horiz-adv-x="1368" d="M2 850h164l252 -576l266 641l264 -641l254 576h164l-422 -909l-262 632l-262 -632z" />
<glyph unicode="x" horiz-adv-x="911" d="M4 0l363 453l-310 397h179l221 -289l223 289h180l-311 -397l352 -453h-176l-268 346l-271 -346h-182z" />
<glyph unicode="y" horiz-adv-x="911" d="M2 850h168l301 -608l274 608h166l-628 -1329h-164l274 559z" />
<glyph unicode="z" horiz-adv-x="921" d="M2 0l616 715h-501v135h792l-612 -715h586v-135h-881z" />
<glyph unicode="&#xa3;" d="M94 53q51 82 119.5 127.5t144.5 46.5q60 91 60 172q0 30 -15 84h-229v117h180q-20 37 -59 117q-54 104 -72 161.5t-18 125.5q0 161 117 270.5t288 109.5q174 0 281.5 -109t114.5 -296l-150 -41q-7 97 -22 147q-23 71 -83 111.5t-141 40.5q-106 0 -179 -70.5t-73 -173.5 q0 -52 24 -115.5t87 -179.5l41 -73l10 -25h258v-117h-217q12 -44 12 -80q0 -87 -59 -196q31 -10 119 -41q119 -41 153 -41q46 0 84 31.5t80 105.5l123 -74q-106 -211 -280 -211q-67 0 -226 54q-89 32 -124.5 41.5t-67.5 9.5q-50 0 -87 -24.5t-77 -84.5z" />
<glyph unicode="&#xa9;" horiz-adv-x="1515" d="M51 688q0 191 95.5 352.5t260.5 255t361 93.5q187 0 347 -95.5t253.5 -258t93.5 -351.5q0 -193 -94 -356t-256 -257t-354 -94q-145 0 -276 56t-225.5 151t-150 226.5t-55.5 277.5zM166 688q0 -122 46.5 -232.5t125.5 -190t188.5 -126.5t231.5 -47q161 0 297 79 t214.5 215.5t78.5 297.5q0 158 -79 294.5t-213 216t-290 79.5q-283 0 -461 -211q-67 -77 -103 -175t-36 -200zM360 674q0 172 125.5 297t298.5 125q85 0 148 -25.5t139 -91.5v-174q-61 74 -88 98q-37 35 -91 56.5t-108 21.5q-123 0 -214 -92t-91 -217q0 -122 91.5 -213.5 t213.5 -91.5q50 0 105.5 20.5t95.5 54.5q15 13 86 95v-172q-75 -60 -140.5 -85.5t-142.5 -25.5q-174 0 -301 124.5t-127 295.5z" />
<glyph unicode="&#xab;" horiz-adv-x="882" d="M76 436l305 383l96 -74l-244 -309l244 -301l-96 -76zM381 436l305 383l94 -74l-243 -309l243 -301l-94 -76z" />
<glyph unicode="&#xad;" horiz-adv-x="370" d="M0 371v131h371v-131h-371z" />
<glyph unicode="&#xae;" horiz-adv-x="1515" d="M51 688q0 191 95.5 352.5t260.5 255t361 93.5q187 0 347 -95.5t253.5 -258t93.5 -351.5q0 -193 -94 -356t-256 -257t-354 -94q-145 0 -276 56t-225.5 151t-150 226.5t-55.5 277.5zM166 688q0 -122 46.5 -232.5t125.5 -190t188.5 -126.5t231.5 -47q161 0 297 79 t214.5 215.5t78.5 297.5q0 158 -79 294.5t-213 216t-290 79.5q-283 0 -461 -211q-67 -77 -103 -175t-36 -200zM578 266v819h139q119 0 180 -45q90 -65 90 -188q0 -91 -49.5 -150.5t-138.5 -72.5l250 -363h-144l-211 309v-309h-116zM694 735h37q137 0 137 119 q0 62 -35.5 90.5t-111.5 28.5h-27v-238z" />
<glyph unicode="&#xbb;" horiz-adv-x="882" d="M102 135l244 301l-244 309l97 74l305 -383l-305 -377zM408 135l243 301l-243 309l94 74l305 -383l-305 -377z" />
<glyph unicode="&#x2c6;" horiz-adv-x="974" d="M205 1077l282 266l285 -266l-106 -80l-179 170l-180 -170z" />
<glyph unicode="&#x401;" horiz-adv-x="987" d="M178 0v1366h707v-141h-553v-408h538v-141h-538v-535h553v-141h-707zM233 1634q0 43 31 74t74 31q41 0 72.5 -32t31.5 -73q0 -43 -30.5 -73.5t-73.5 -30.5q-44 0 -74.5 30t-30.5 74zM623 1634q0 43 30.5 74t73.5 31q41 0 72.5 -32t31.5 -73q0 -43 -30.5 -73.5t-73.5 -30.5 q-44 0 -74 30t-30 74z" />
<glyph unicode="&#x406;" horiz-adv-x="507" d="M178 0v1366h154v-1366h-154z" />
<glyph unicode="&#x40e;" horiz-adv-x="1067" d="M55 1366h176l349 -610l352 610h176l-795 -1366h-172l351 606zM299 1763h131q17 -71 54 -104t98 -33q119 0 153 137h131q-15 -126 -89.5 -196t-194.5 -70q-69 0 -128.5 26.5t-97.5 73.5q-28 36 -40.5 71t-16.5 95z" />
<glyph unicode="&#x410;" horiz-adv-x="1269" d="M14 0l629 1432l614 -1432h-167l-162 387h-584l-164 -387h-166zM408 528h460l-227 547z" />
<glyph unicode="&#x411;" horiz-adv-x="1071" d="M178 0v1366h656v-141h-502v-457h186q118 0 192.5 -20.5t135.5 -71.5q137 -110 137 -291q0 -183 -137 -293q-61 -51 -135.5 -71.5t-192.5 -20.5h-340zM332 141h174q93 0 143.5 13t93.5 47q41 34 64.5 82.5t23.5 101.5q0 51 -23.5 99.5t-64.5 82.5q-43 34 -93.5 47 t-143.5 13h-174v-486z" />
<glyph unicode="&#x412;" horiz-adv-x="1085" d="M178 0v1366h248q204 0 309 -86q59 -47 93 -123.5t34 -161.5q0 -88 -32 -150.5t-103 -113.5q121 -35 189.5 -126.5t68.5 -219.5q0 -86 -35.5 -162.5t-101.5 -130.5q-63 -51 -137.5 -71.5t-192.5 -20.5h-340zM332 141h174q93 0 144.5 13t92.5 47q43 34 67 84t24 104 q0 63 -32 119t-83 84q-74 43 -234 43h-153v-494zM332 764h114q76 0 118 11.5t75 41.5q74 62 74 176q0 115 -72 181q-59 51 -190 51h-119v-461z" />
<glyph unicode="&#x413;" horiz-adv-x="860" d="M178 0v1366h656v-141h-502v-1225h-154z" />
<glyph unicode="&#x414;" horiz-adv-x="1464" d="M55 141h148q61 19 86.5 76.5t25.5 179.5v969h902v-1225h124v-342h-153v201h-979v-201h-154v342zM422 141h641v1084h-594v-828q0 -97 -10.5 -154.5t-36.5 -101.5z" />
<glyph unicode="&#x415;" horiz-adv-x="987" d="M178 0v1366h707v-141h-553v-408h538v-141h-538v-535h553v-141h-707z" />
<glyph unicode="&#x416;" horiz-adv-x="1875" d="M27 0l659 729l-639 637h205l608 -616v616h154v-616l608 616h205l-639 -637l659 -729h-209l-559 627l-65 -68v-559h-154v559l-65 68l-559 -627h-209z" />
<glyph unicode="&#x417;" horiz-adv-x="1001" d="M123 31v159q130 -71 295 -71q149 0 234 72t85 198q0 78 -36 140.5t-99 93.5q-39 18 -76 24t-112 8h-64v127q144 -3 223 33q65 28 100.5 79.5t35.5 117.5q0 106 -86.5 169.5t-229.5 63.5t-270 -65v155q140 54 293 54q203 0 324.5 -100t121.5 -267q0 -218 -190 -297 q106 -40 163.5 -127.5t57.5 -208.5q0 -192 -128 -303t-349 -111q-157 0 -293 56z" />
<glyph unicode="&#x418;" horiz-adv-x="1570" d="M178 -61v1427h154v-1059l1063 1116v-1423h-154v1053z" />
<glyph unicode="&#x419;" horiz-adv-x="1570" d="M178 -61v1427h154v-1059l1063 1116v-1423h-154v1053zM504 1763h129q19 -71 55 -104t96 -33q122 0 156 137h131q-15 -126 -90.5 -196t-194.5 -70q-144 0 -225 100q-28 36 -40.5 71t-16.5 95z" />
<glyph unicode="&#x41a;" horiz-adv-x="1165" d="M178 0v1366h154v-586l581 586h205l-641 -637l662 -729h-209l-559 627l-39 -39v-588h-154z" />
<glyph unicode="&#x41b;" horiz-adv-x="1337" d="M68 -4v145q32 -4 41 -4q78 0 113.5 62.5t35.5 197.5v969h901v-1366h-153v1225h-594v-828q0 -129 -23 -200.5t-80 -124.5q-81 -78 -198 -78q-25 0 -43 2z" />
<glyph unicode="&#x41c;" horiz-adv-x="1767" d="M129 0l225 1442l525 -1153l536 1155l211 -1444h-156l-127 950l-464 -1007l-459 1007l-135 -950h-156z" />
<glyph unicode="&#x41d;" horiz-adv-x="1357" d="M178 0v1366h154v-557h696v557h154v-1366h-154v668h-696v-668h-154z" />
<glyph unicode="&#x41e;" horiz-adv-x="1626" d="M102 690q0 186 97 347.5t261.5 256.5t354.5 95q191 0 354.5 -95.5t259 -258.5t95.5 -353q0 -144 -57 -275t-153 -225.5t-228.5 -150.5t-278.5 -56q-153 0 -299 69t-246 189q-160 195 -160 457zM256 690q0 -155 74 -286.5t201.5 -208t277.5 -76.5q152 0 281 75.5 t204.5 205t75.5 282.5t-74 282.5t-202.5 205t-280.5 75.5q-150 0 -278.5 -75t-203.5 -203t-75 -277z" />
<glyph unicode="&#x41f;" horiz-adv-x="1357" d="M178 0v1366h1004v-1366h-154v1225h-696v-1225h-154z" />
<glyph unicode="&#x420;" horiz-adv-x="935" d="M178 0v1366h248q127 0 205.5 -22t138.5 -74q60 -51 93.5 -126.5t33.5 -160.5q0 -180 -115.5 -282.5t-316.5 -102.5h-133v-598h-154zM332 737h123q139 0 216 64.5t77 181.5q0 114 -76 180q-74 62 -228 62h-112v-488z" />
<glyph unicode="&#x421;" horiz-adv-x="1323" d="M102 678q0 144 57 275.5t153 227t228 152t277 56.5q115 0 207 -31t197 -105v-188q-99 95 -197.5 137.5t-216.5 42.5q-111 0 -213 -45.5t-176 -122t-118 -181t-44 -218.5q0 -150 75 -279t202.5 -204.5t275.5 -75.5q114 0 214 43t198 135v-188q-194 -134 -412 -134 q-142 0 -273 56t-226 150.5t-151.5 224.5t-56.5 272z" />
<glyph unicode="&#x422;" horiz-adv-x="870" d="M27 1225v141h815v-141h-332v-1225h-154v1225h-329z" />
<glyph unicode="&#x423;" horiz-adv-x="1067" d="M55 1366h176l349 -610l352 610h176l-795 -1366h-172l351 606z" />
<glyph unicode="&#x424;" horiz-adv-x="1585" d="M82 680q0 129 49.5 245.5t134 202t202.5 137.5t251 56v154h147v-154q133 -4 251 -56t202.5 -137.5t134 -202t49.5 -245.5q0 -172 -84.5 -317.5t-231 -230.5t-321.5 -87v-154h-147v154q-175 2 -321.5 87t-231 230.5t-84.5 317.5zM236 680q0 -132 63.5 -244t174.5 -178.5 t245 -69.5v990q-205 -6 -344 -149t-139 -349zM866 188q134 3 245 69.5t175 178.5t64 244q0 205 -139 348.5t-345 149.5v-990z" />
<glyph unicode="&#x425;" horiz-adv-x="1028" d="M27 0l403 707l-369 659h175l282 -514l289 514h174l-377 -659l395 -707h-170l-313 561l-317 -561h-172z" />
<glyph unicode="&#x426;" horiz-adv-x="1372" d="M178 0v1366h154v-1225h696v1225h154v-1225h123v-342h-154v201h-973z" />
<glyph unicode="&#x427;" horiz-adv-x="1224" d="M68 961v405h153v-362q0 -148 25 -220.5t92 -119.5q99 -74 289 -74q106 0 266 39v737h154v-1366h-154v483q-124 -23 -174.5 -28.5t-118.5 -5.5q-301 0 -442 190q-49 62 -69.5 136.5t-20.5 185.5z" />
<glyph unicode="&#x428;" horiz-adv-x="1873" d="M178 0v1366h154v-1225h528v1225h154v-1225h528v1225h154v-1366h-1518z" />
<glyph unicode="&#x429;" horiz-adv-x="1890" d="M178 0v1366h154v-1225h528v1225h154v-1225h528v1225h154v-1225h127v-342h-154v201h-1491z" />
<glyph unicode="&#x42a;" horiz-adv-x="1314" d="M27 1225v141h579v-598h187q118 0 192 -20.5t137 -71.5q66 -54 102 -130t36 -161q0 -86 -36 -162.5t-102 -130.5q-63 -51 -137 -71.5t-192 -20.5h-340v1225h-426zM606 141h174q93 0 145 13t93 47t65.5 83.5t24.5 100.5q0 50 -24.5 99t-65.5 83t-93 47t-145 13h-174v-486z " />
<glyph unicode="&#x42b;" horiz-adv-x="1531" d="M178 0v1366h154v-598h186q118 0 192.5 -20.5t137.5 -71.5q66 -54 101.5 -130t35.5 -161q0 -86 -35.5 -162.5t-101.5 -130.5q-63 -51 -137.5 -71.5t-192.5 -20.5h-340zM332 141h174q93 0 144.5 13t92.5 47q42 34 66.5 83.5t24.5 100.5q0 49 -25 98.5t-66 83.5t-92.5 47 t-144.5 13h-174v-486zM1202 0v1366h154v-1366h-154z" />
<glyph unicode="&#x42c;" horiz-adv-x="1038" d="M178 0v1366h154v-598h186q118 0 192.5 -20.5t137.5 -71.5q66 -54 101.5 -130t35.5 -161q0 -86 -35.5 -162.5t-101.5 -130.5q-63 -51 -137.5 -71.5t-192.5 -20.5h-340zM332 141h174q93 0 144.5 13t92.5 47q42 34 66.5 83.5t24.5 100.5q0 49 -25 98.5t-66 83.5t-92.5 47 t-144.5 13h-174v-486z" />
<glyph unicode="&#x42d;" horiz-adv-x="1323" d="M102 109v188q192 -178 412 -178q207 0 365.5 142t183.5 349h-621v142h621q-31 214 -186 353.5t-361 139.5q-118 0 -216.5 -42.5t-197.5 -137.5v188q105 74 197 105t207 31q146 0 278 -56.5t228 -151.5t152.5 -226.5t56.5 -276.5q0 -142 -56.5 -272t-151.5 -224.5 t-226 -150.5t-273 -56q-218 0 -412 134z" />
<glyph unicode="&#x42e;" horiz-adv-x="2158" d="M178 0v1366h154v-614h309q21 182 119.5 327.5t253.5 227.5t336 82q190 0 353.5 -95.5t259 -258.5t95.5 -353q0 -142 -56.5 -273t-152 -226t-227 -151.5t-274.5 -56.5q-180 0 -336 83.5t-255.5 229t-117.5 322.5h-307v-610h-154zM791 690q0 -263 188 -430 q76 -67 171.5 -104t192.5 -37q152 0 281.5 75.5t205 205t75.5 282.5t-74.5 282.5t-203 205t-279.5 75.5q-112 0 -215 -44t-178 -118.5t-119.5 -177.5t-44.5 -215z" />
<glyph unicode="&#x42f;" horiz-adv-x="1056" d="M88 0l434 610q-155 14 -249.5 116t-94.5 257q0 97 40.5 179.5t111.5 129.5q58 40 134 57t193 17h222v-1366h-154v598h-39l-412 -598h-186zM328 983q0 -57 24.5 -110t65.5 -85q73 -55 211 -55h96v492h-90q-136 0 -207 -45q-46 -29 -73 -82.5t-27 -114.5z" />
<glyph unicode="&#x430;" horiz-adv-x="1073" d="M86 428q0 192 114.5 317t291.5 125q92 0 162.5 -33.5t133.5 -107.5v121h146v-850h-146v119q-120 -144 -292 -144q-178 0 -294 128t-116 325zM236 430q0 -143 77 -232t201 -89q126 0 205.5 88.5t79.5 228.5q0 138 -79.5 224.5t-205.5 86.5q-120 0 -199 -87t-79 -220z" />
<glyph unicode="&#x431;" horiz-adv-x="1071" d="M84 516q0 330 93 499t323 255l106 41q103 40 148 72t106 110v-180q-42 -45 -75 -65t-130 -58l-131 -53q-131 -56 -203.5 -151t-78.5 -220v-8q122 110 297 110q189 0 317.5 -128.5t128.5 -317.5q0 -188 -129.5 -317.5t-318.5 -129.5q-126 0 -237.5 66.5t-160.5 171.5 q-55 113 -55 303zM236 426q0 -138 83.5 -227.5t212.5 -89.5q135 0 219.5 87t84.5 226q0 140 -83 226.5t-218 86.5q-129 0 -214 -88t-85 -221z" />
<glyph unicode="&#x432;" horiz-adv-x="831" d="M139 0v850h267q133 0 205.5 -59t72.5 -168q0 -54 -20 -91.5t-66 -68.5q78 -23 122 -81t44 -138q0 -113 -88 -185q-40 -32 -88 -45.5t-123 -13.5h-326zM285 127h166q78 0 118.5 31.5t40.5 91.5q0 129 -172 129h-153v-252zM285 494h129q135 0 135 120q0 111 -133 111h-131 v-231z" />
<glyph unicode="&#x433;" horiz-adv-x="563" d="M139 0v850h410v-135h-264v-715h-146z" />
<glyph unicode="&#x434;" horiz-adv-x="962" d="M41 135h90q35 13 50.5 58t15.5 133v524h606v-715h92v-282h-145v147h-564v-147h-145v282zM305 135h352v580h-315v-389q0 -132 -37 -191z" />
<glyph unicode="&#x435;" horiz-adv-x="985" d="M84 420q0 199 114.5 323.5t297.5 124.5q184 0 294.5 -122.5t110.5 -325.5v-25h-663q6 -130 79.5 -208t190.5 -78q86 0 143 39t119 139l123 -70q-70 -124 -166 -183t-225 -59q-185 0 -301.5 124.5t-116.5 320.5zM248 518h500q-20 100 -88 159.5t-162 59.5 q-92 0 -162.5 -62t-87.5 -157z" />
<glyph unicode="&#x436;" horiz-adv-x="1318" d="M0 0l428 463l-371 387h170l359 -387v387h145v-387l359 387h170l-371 -387l428 -463h-189l-327 365l-70 -78v-287h-145v287l-70 78l-328 -365h-188z" />
<glyph unicode="&#x437;" horiz-adv-x="667" d="M84 14v144q91 -52 188 -52q73 0 118.5 38t45.5 98q0 67 -52 107t-140 40h-21h-18v100q63 0 88.5 3t48.5 14q34 15 54 44.5t20 63.5q0 57 -44.5 90t-119.5 33q-93 0 -168 -37v134q91 36 195 36q127 0 203.5 -65t76.5 -172q0 -133 -123 -187q148 -50 148 -217 q0 -118 -80.5 -186t-220.5 -68q-108 0 -199 39z" />
<glyph unicode="&#x438;" horiz-adv-x="1058" d="M139 -41v891h146v-588l635 625v-887h-146v567z" />
<glyph unicode="&#x439;" horiz-adv-x="1058" d="M139 -41v891h146v-588l635 625v-887h-146v567zM287 1296h127q6 -68 42.5 -105.5t96.5 -37.5q58 0 95.5 37t49.5 106h125q-14 -123 -86 -194.5t-184 -71.5q-116 0 -189.5 73t-76.5 193z" />
<glyph unicode="&#x43a;" horiz-adv-x="862" d="M139 0v850h146v-354l329 354h172l-372 -387l430 -463h-189l-329 367l-41 -45v-322h-146z" />
<glyph unicode="&#x43b;" horiz-adv-x="935" d="M68 -4v145q16 -4 24 -4q84 0 84 152v561h621v-850h-146v715h-329v-426q0 -96 -16.5 -149t-59.5 -91q-61 -55 -146 -55q-20 0 -32 2z" />
<glyph unicode="&#x43c;" horiz-adv-x="1210" d="M84 0l174 928l346 -699l346 699l176 -928h-147l-88 508l-287 -547l-285 547l-90 -508h-145z" />
<glyph unicode="&#x43d;" horiz-adv-x="964" d="M139 0v850h146v-328h395v328h145v-850h-145v387h-395v-387h-146z" />
<glyph unicode="&#x43e;" horiz-adv-x="1067" d="M84 430q0 182 132 310t319 128q189 0 318.5 -128.5t129.5 -317.5t-131 -318t-322 -129q-189 0 -317.5 131.5t-128.5 323.5zM233 426q0 -140 82.5 -228.5t212.5 -88.5q135 0 220.5 87.5t85.5 225.5t-85 225.5t-217 87.5q-131 0 -215 -87t-84 -222z" />
<glyph unicode="&#x43f;" horiz-adv-x="964" d="M139 0v850h686v-850h-145v715h-395v-715h-146z" />
<glyph unicode="&#x440;" horiz-adv-x="1073" d="M139 -479v1329h146v-121q120 141 293 141q179 0 294 -127t115 -323q0 -194 -114 -319.5t-291 -125.5q-174 0 -297 144v-598h-146zM274 420q0 -136 80 -223.5t205 -87.5q120 0 199.5 87.5t79.5 219.5q0 143 -77 232t-200 89q-126 0 -206.5 -89t-80.5 -228z" />
<glyph unicode="&#x441;" horiz-adv-x="890" d="M84 420q0 190 130.5 319t322.5 129q76 0 136 -18.5t128 -61.5v-192q-71 78 -129.5 108.5t-139.5 30.5q-129 0 -214 -89t-85 -224t84 -224t213 -89q82 0 143 32t134 115v-193q-78 -49 -137.5 -68.5t-134.5 -19.5q-190 0 -320.5 128.5t-130.5 316.5z" />
<glyph unicode="&#x442;" horiz-adv-x="620" d="M16 715v135h588v-135h-223v-715h-145v715h-220z" />
<glyph unicode="&#x443;" horiz-adv-x="942" d="M16 850h168l301 -608l275 608h166l-629 -1329h-164l275 559z" />
<glyph unicode="&#x444;" horiz-adv-x="1243" d="M84 426q0 192 109 317t276 125q44 0 80 -8v414h145v-414q36 8 80 8q167 0 276 -125t109 -317q0 -195 -111 -323t-278 -128q-36 0 -76 9v-463h-145v463q-41 -9 -76 -9q-167 0 -278 128t-111 323zM233 426q0 -136 67 -226.5t167 -90.5q46 0 82 26v578q-42 22 -82 22 q-100 0 -167 -88.5t-67 -220.5zM694 135q36 -26 82 -26q100 0 167 90.5t67 226.5q0 132 -67 220.5t-167 88.5q-40 0 -82 -22v-578z" />
<glyph unicode="&#x445;" horiz-adv-x="929" d="M16 0l363 453l-309 397h178l221 -289l223 289h180l-311 -397l352 -453h-176l-268 346l-270 -346h-183z" />
<glyph unicode="&#x446;" horiz-adv-x="985" d="M139 0v850h146v-715h395v715h145v-715h93v-336h-154v201h-625z" />
<glyph unicode="&#x447;" horiz-adv-x="868" d="M68 627v223h145v-199q0 -73 7 -109.5t26 -66.5q26 -40 74 -62t108 -22q75 0 156 37v422h145v-850h-145v287l-4 -2l-21 -4q-77 -23 -153 -23q-191 0 -281 137q-57 85 -57 232z" />
<glyph unicode="&#x448;" horiz-adv-x="1337" d="M139 0v850h146v-715h311v715h145v-715h312v715h145v-850h-1059z" />
<glyph unicode="&#x449;" horiz-adv-x="1361" d="M139 0v850h146v-715h311v715h145v-715h312v715h145v-715h94v-336h-153v201h-1000z" />
<glyph unicode="&#x44a;" horiz-adv-x="882" d="M0 715v135h410v-342h122q142 0 218.5 -65t76.5 -187q0 -124 -77 -190t-220 -66h-266v715h-264zM410 129h104q160 0 160 123q0 127 -170 127h-94v-250z" />
<glyph unicode="&#x44b;" horiz-adv-x="1157" d="M139 0v850h146v-342h123q142 0 218 -65t76 -187q0 -125 -75.5 -190.5t-220.5 -65.5h-267zM285 129h106q81 0 115 29q45 36 45 94q0 31 -15.5 60t-41.5 44q-39 23 -115 23h-94v-250zM872 0v850h146v-850h-146z" />
<glyph unicode="&#x44c;" horiz-adv-x="757" d="M139 0v850h146v-342h123q142 0 218 -65t76 -187q0 -124 -76.5 -190t-219.5 -66h-267zM285 129h104q160 0 160 123q0 127 -170 127h-94v-250z" />
<glyph unicode="&#x44d;" horiz-adv-x="890" d="M84 63v193q71 -83 132.5 -115t143.5 -32q114 0 193.5 69.5t99.5 186.5h-354v135h350q-26 108 -104.5 171.5t-186.5 63.5q-81 0 -139 -30.5t-129 -108.5v192q68 43 128 61.5t136 18.5q192 0 322.5 -129t130.5 -319q0 -189 -130 -317t-321 -128q-75 0 -134.5 19.5 t-137.5 68.5z" />
<glyph unicode="&#x44e;" horiz-adv-x="1480" d="M139 0v850h146v-352h217q26 161 151.5 265.5t292.5 104.5q189 0 319 -128.5t130 -315.5q0 -189 -130 -319t-319 -130q-170 0 -296.5 109t-149.5 278h-215v-362h-146zM645 428q0 -140 83.5 -229.5t213.5 -89.5q134 0 218.5 88t84.5 227q0 138 -84.5 225.5t-216.5 87.5 q-128 0 -213.5 -88.5t-85.5 -220.5z" />
<glyph unicode="&#x44f;" horiz-adv-x="786" d="M82 0l242 330q-86 15 -138.5 84.5t-52.5 167.5q0 66 28 124.5t75 90.5q72 53 223 53h188v-850h-145v313h-35l-207 -313h-178zM279 584q0 -71 44 -109.5t126 -38.5h53v285h-53q-170 0 -170 -137z" />
<glyph unicode="&#x451;" horiz-adv-x="985" d="M84 420q0 199 114.5 323.5t297.5 124.5q184 0 294.5 -122.5t110.5 -325.5v-25h-663q6 -130 79.5 -208t190.5 -78q86 0 143 39t119 139l123 -70q-70 -124 -166 -183t-225 -59q-185 0 -301.5 124.5t-116.5 320.5zM233 1149q0 41 30 70.5t71 29.5q43 0 73.5 -30.5 t30.5 -71.5t-30.5 -72t-71.5 -31q-43 0 -73 30.5t-30 74.5zM248 518h500q-20 100 -88 159.5t-162 59.5q-92 0 -162.5 -62t-87.5 -157zM588 1149q0 40 30.5 70t71.5 30q43 0 73 -29.5t30 -72.5t-30 -73t-73 -30q-42 0 -72 31t-30 74z" />
<glyph unicode="&#x456;" horiz-adv-x="425" d="M109 1171q0 43 31.5 74t72.5 31q43 0 73.5 -31t30.5 -74q0 -44 -30 -74t-74 -30t-74 30t-30 74zM139 0v850h146v-850h-146z" />
<glyph unicode="&#x45e;" horiz-adv-x="942" d="M16 850h168l301 -608l275 608h166l-629 -1329h-164l275 559zM203 1296h127q4 -67 41.5 -105t97.5 -38q59 0 96 37t47 106h127q-13 -123 -86 -194.5t-184 -71.5q-117 0 -190 73t-76 193z" />
<glyph unicode="&#x2000;" horiz-adv-x="881" />
<glyph unicode="&#x2001;" horiz-adv-x="1763" />
<glyph unicode="&#x2002;" horiz-adv-x="881" />
<glyph unicode="&#x2003;" horiz-adv-x="1763" />
<glyph unicode="&#x2004;" horiz-adv-x="587" />
<glyph unicode="&#x2005;" horiz-adv-x="440" />
<glyph unicode="&#x2006;" horiz-adv-x="293" />
<glyph unicode="&#x2007;" horiz-adv-x="293" />
<glyph unicode="&#x2008;" horiz-adv-x="220" />
<glyph unicode="&#x2009;" horiz-adv-x="352" />
<glyph unicode="&#x200a;" horiz-adv-x="97" />
<glyph unicode="&#x2010;" horiz-adv-x="370" d="M0 371v131h371v-131h-371z" />
<glyph unicode="&#x2011;" horiz-adv-x="370" d="M0 371v131h371v-131h-371z" />
<glyph unicode="&#x2012;" horiz-adv-x="370" d="M0 371v131h371v-131h-371z" />
<glyph unicode="&#x2013;" horiz-adv-x="1161" d="M240 371v131h682v-131h-682z" />
<glyph unicode="&#x2014;" horiz-adv-x="1114" d="M0 371v131h1114v-131h-1114z" />
<glyph unicode="&#x2018;" horiz-adv-x="534" d="M117 973l205 461l98 -39l-170 -471z" />
<glyph unicode="&#x2019;" horiz-adv-x="466" d="M70 963l170 471l133 -50l-205 -460z" />
<glyph unicode="&#x201a;" horiz-adv-x="466" d="M70 -266l170 471l133 -49l-205 -461z" />
<glyph unicode="&#x201c;" horiz-adv-x="835" d="M117 973l205 461l98 -39l-170 -471zM416 973l207 461l98 -39l-170 -471z" />
<glyph unicode="&#x201d;" horiz-adv-x="835" d="M117 963l170 471l133 -50l-205 -460zM416 963l170 471l135 -50l-207 -460z" />
<glyph unicode="&#x201e;" horiz-adv-x="835" d="M117 -272l170 473l133 -49l-205 -463zM416 -272l170 473l135 -49l-207 -463z" />
<glyph unicode="&#x2022;" horiz-adv-x="1366" d="M401 696q0 119 84 203q43 43 87.5 60.5t113.5 17.5q123 0 195 -78q40 -41 64 -97t24 -106q0 -49 -24.5 -105.5t-61.5 -96.5q-84 -84 -199 -84q-117 0 -200 84t-83 202z" />
<glyph unicode="&#x2026;" horiz-adv-x="1527" d="M154 82q0 41 28.5 69.5t71.5 28.5t71.5 -28.5t28.5 -69.5q0 -43 -29.5 -72.5t-70.5 -29.5t-70.5 29.5t-29.5 72.5zM664 82q0 41 28.5 69.5t71.5 28.5q41 0 70.5 -28.5t29.5 -69.5t-29.5 -71.5t-70.5 -30.5q-43 0 -71.5 29.5t-28.5 72.5zM1171 82q0 41 29.5 69.5 t71.5 28.5q44 0 72 -27.5t28 -70.5t-28.5 -72.5t-69.5 -29.5q-42 0 -72.5 30t-30.5 72z" />
<glyph unicode="&#x202f;" horiz-adv-x="352" />
<glyph unicode="&#x205f;" horiz-adv-x="440" />
<glyph unicode="&#x20ac;" d="M-47 475l74 117h96q-6 49 -6 82q0 30 4 69h-168l74 117h114q63 232 257.5 379t437.5 147q68 0 123 -11.5t139 -43.5v-162q-89 43 -146.5 58.5t-126.5 15.5q-176 0 -317.5 -104t-206.5 -279h684l-76 -117h-635q-4 -41 -4 -69q0 -26 6 -82h535l-74 -117h-430 q66 -163 207 -259.5t311 -96.5q72 0 129.5 15.5t143.5 58.5v-162q-83 -31 -142 -43.5t-129 -12.5q-233 0 -422 138.5t-258 361.5h-194z" />
<glyph unicode="&#x25fc;" horiz-adv-x="850" d="M0 0v850h850v-850h-850z" />
</font>
</defs>
</svg>
